<svg width="16" height="16" viewBox="0 0 16 16" fill="none" xmlns="http://www.w3.org/2000/svg">
<path fill-rule="evenodd" clip-rule="evenodd" d="M8 2.5C4.96243 2.5 2.5 4.96243 2.5 8C2.5 11.0376 4.96243 13.5 8 13.5C11.0376 13.5 13.5 11.0376 13.5 8C13.5 4.96243 11.0376 2.5 8 2.5ZM1.5 8C1.5 4.41015 4.41015 1.5 8 1.5C11.5899 1.5 14.5 4.41015 14.5 8C14.5 11.5899 11.5899 14.5 8 14.5C4.41015 14.5 1.5 11.5899 1.5 8Z" fill="white"/>
<path fill-rule="evenodd" clip-rule="evenodd" d="M8.02779 5.52779C8.22306 5.33253 8.53964 5.33253 8.7349 5.52779L10.8537 7.64654C11.0489 7.84181 11.0489 8.15839 10.8537 8.35365L8.7349 10.4724C8.53964 10.6677 8.22306 10.6677 8.02779 10.4724C7.83253 10.2771 7.83253 9.96056 8.02779 9.76529L9.79299 8.0001L8.02779 6.2349C7.83253 6.03964 7.83253 5.72306 8.02779 5.52779Z" fill="white"/>
<path fill-rule="evenodd" clip-rule="evenodd" d="M5 8C5 7.72386 5.22386 7.5 5.5 7.5H10.5C10.7761 7.5 11 7.72386 11 8C11 8.27614 10.7761 8.5 10.5 8.5H5.5C5.22386 8.5 5 8.27614 5 8Z" fill="white"/>
</svg>
